ISO-10303-21;
HEADER;
/* Generated by software containing ST-Developer
 * from STEP Tools, Inc. (www.steptools.com) 
 */

FILE_DESCRIPTION(
/* description */ (''),
/* implementation_level */ '2;1');

FILE_NAME(
/* name */ 'Binding Post Nut Driver.step',
/* time_stamp */ '2026-09-18T14:34:46+09:30',
/* author */ (''),
/* organization */ (''),
/* preprocessor_version */ 'ST-DEVELOPER v20.2',
/* originating_system */ 'Autodesk Translation Framework v15.15.0.0',
/* authorisation */ '');

FILE_SCHEMA (('AUTOMOTIVE_DESIGN { 1 0 10303 214 3 1 1 }'));
ENDSEC;

DATA;
#10=MECHANICAL_DESIGN_GEOMETRIC_PRESENTATION_REPRESENTATION('',(#13),#457);
#11=SHAPE_REPRESENTATION_RELATIONSHIP('SRR','None',#464,#12);
#12=ADVANCED_BREP_SHAPE_REPRESENTATION('',(#264),#456);
#13=STYLED_ITEM('',(#473),#264);
#14=ORIENTED_CLOSED_SHELL('',*,#263,.F.);
#15=FACE_BOUND('',#60,.T.);
#16=PLANE('',#284);
#17=PLANE('',#285);
#18=PLANE('',#286);
#19=PLANE('',#287);
#20=PLANE('',#288);
#21=PLANE('',#289);
#22=PLANE('',#290);
#23=PLANE('',#291);
#24=PLANE('',#294);
#25=PLANE('',#298);
#26=PLANE('',#303);
#27=CYLINDRICAL_SURFACE('',#282,15.);
#28=CYLINDRICAL_SURFACE('',#292,6.99999786913396);
#29=CYLINDRICAL_SURFACE('',#295,13.);
#30=CYLINDRICAL_SURFACE('',#300,7.50000000000001);
#31=FACE_OUTER_BOUND('',#48,.T.);
#32=FACE_OUTER_BOUND('',#49,.T.);
#33=FACE_OUTER_BOUND('',#50,.T.);
#34=FACE_OUTER_BOUND('',#51,.T.);
#35=FACE_OUTER_BOUND('',#52,.T.);
#36=FACE_OUTER_BOUND('',#53,.T.);
#37=FACE_OUTER_BOUND('',#54,.T.);
#38=FACE_OUTER_BOUND('',#55,.T.);
#39=FACE_OUTER_BOUND('',#56,.T.);
#40=FACE_OUTER_BOUND('',#57,.T.);
#41=FACE_OUTER_BOUND('',#58,.T.);
#42=FACE_OUTER_BOUND('',#59,.T.);
#43=FACE_OUTER_BOUND('',#61,.T.);
#44=FACE_OUTER_BOUND('',#62,.T.);
#45=FACE_OUTER_BOUND('',#63,.T.);
#46=FACE_OUTER_BOUND('',#64,.T.);
#47=FACE_OUTER_BOUND('',#65,.T.);
#48=EDGE_LOOP('',(#177,#178,#179,#180,#181));
#49=EDGE_LOOP('',(#182,#183,#184,#185));
#50=EDGE_LOOP('',(#186,#187,#188,#189,#190,#191));
#51=EDGE_LOOP('',(#192));
#52=EDGE_LOOP('',(#193,#194,#195,#196));
#53=EDGE_LOOP('',(#197,#198,#199,#200));
#54=EDGE_LOOP('',(#201,#202,#203,#204));
#55=EDGE_LOOP('',(#205,#206,#207,#208));
#56=EDGE_LOOP('',(#209,#210,#211,#212));
#57=EDGE_LOOP('',(#213,#214,#215,#216));
#58=EDGE_LOOP('',(#217,#218,#219,#220,#221));
#59=EDGE_LOOP('',(#222));
#60=EDGE_LOOP('',(#223,#224,#225,#226,#227,#228));
#61=EDGE_LOOP('',(#229,#230,#231,#232));
#62=EDGE_LOOP('',(#233));
#63=EDGE_LOOP('',(#234,#235,#236,#237));
#64=EDGE_LOOP('',(#238,#239,#240,#241));
#65=EDGE_LOOP('',(#242));
#66=LINE('',#387,#90);
#67=LINE('',#394,#91);
#68=LINE('',#398,#92);
#69=LINE('',#400,#93);
#70=LINE('',#402,#94);
#71=LINE('',#404,#95);
#72=LINE('',#406,#96);
#73=LINE('',#407,#97);
#74=LINE('',#412,#98);
#75=LINE('',#413,#99);
#76=LINE('',#414,#100);
#77=LINE('',#417,#101);
#78=LINE('',#418,#102);
#79=LINE('',#421,#103);
#80=LINE('',#422,#104);
#81=LINE('',#425,#105);
#82=LINE('',#426,#106);
#83=LINE('',#429,#107);
#84=LINE('',#430,#108);
#85=LINE('',#432,#109);
#86=LINE('',#435,#110);
#87=LINE('',#442,#111);
#88=LINE('',#450,#112);
#89=LINE('',#452,#113);
#90=VECTOR('',#310,11.);
#91=VECTOR('',#319,15.);
#92=VECTOR('',#322,10.);
#93=VECTOR('',#323,10.);
#94=VECTOR('',#324,10.);
#95=VECTOR('',#325,10.);
#96=VECTOR('',#326,10.);
#97=VECTOR('',#327,10.);
#98=VECTOR('',#332,10.);
#99=VECTOR('',#333,10.);
#100=VECTOR('',#334,10.);
#101=VECTOR('',#337,10.);
#102=VECTOR('',#338,10.);
#103=VECTOR('',#341,10.);
#104=VECTOR('',#342,10.);
#105=VECTOR('',#345,10.);
#106=VECTOR('',#346,10.);
#107=VECTOR('',#349,10.);
#108=VECTOR('',#350,10.);
#109=VECTOR('',#353,10.);
#110=VECTOR('',#356,6.99999786913396);
#111=VECTOR('',#365,13.);
#112=VECTOR('',#376,7.50000000000001);
#113=VECTOR('',#379,10.25);
#114=CIRCLE('',#279,15.);
#115=CIRCLE('',#280,6.99999786913396);
#116=CIRCLE('',#281,6.99999786913396);
#117=CIRCLE('',#283,15.);
#118=CIRCLE('',#293,6.99999786913396);
#119=CIRCLE('',#296,13.);
#120=CIRCLE('',#297,13.);
#121=CIRCLE('',#299,7.50000000000001);
#122=CIRCLE('',#301,7.50000000000001);
#123=VERTEX_POINT('',#384);
#124=VERTEX_POINT('',#386);
#125=VERTEX_POINT('',#388);
#126=VERTEX_POINT('',#392);
#127=VERTEX_POINT('',#396);
#128=VERTEX_POINT('',#397);
#129=VERTEX_POINT('',#399);
#130=VERTEX_POINT('',#401);
#131=VERTEX_POINT('',#403);
#132=VERTEX_POINT('',#405);
#133=VERTEX_POINT('',#410);
#134=VERTEX_POINT('',#411);
#135=VERTEX_POINT('',#416);
#136=VERTEX_POINT('',#420);
#137=VERTEX_POINT('',#424);
#138=VERTEX_POINT('',#428);
#139=VERTEX_POINT('',#434);
#140=VERTEX_POINT('',#439);
#141=VERTEX_POINT('',#441);
#142=VERTEX_POINT('',#445);
#143=VERTEX_POINT('',#448);
#144=EDGE_CURVE('',#123,#123,#114,.T.);
#145=EDGE_CURVE('',#123,#124,#66,.T.);
#146=EDGE_CURVE('',#124,#125,#115,.T.);
#147=EDGE_CURVE('',#125,#124,#116,.T.);
#148=EDGE_CURVE('',#126,#126,#117,.T.);
#149=EDGE_CURVE('',#126,#123,#67,.T.);
#150=EDGE_CURVE('',#127,#128,#68,.T.);
#151=EDGE_CURVE('',#128,#129,#69,.T.);
#152=EDGE_CURVE('',#129,#130,#70,.T.);
#153=EDGE_CURVE('',#130,#131,#71,.T.);
#154=EDGE_CURVE('',#131,#132,#72,.T.);
#155=EDGE_CURVE('',#132,#127,#73,.T.);
#156=EDGE_CURVE('',#133,#134,#74,.T.);
#157=EDGE_CURVE('',#134,#128,#75,.T.);
#158=EDGE_CURVE('',#133,#127,#76,.T.);
#159=EDGE_CURVE('',#135,#133,#77,.T.);
#160=EDGE_CURVE('',#135,#132,#78,.T.);
#161=EDGE_CURVE('',#136,#135,#79,.T.);
#162=EDGE_CURVE('',#136,#131,#80,.T.);
#163=EDGE_CURVE('',#137,#136,#81,.T.);
#164=EDGE_CURVE('',#137,#130,#82,.T.);
#165=EDGE_CURVE('',#138,#137,#83,.T.);
#166=EDGE_CURVE('',#138,#129,#84,.T.);
#167=EDGE_CURVE('',#134,#138,#85,.T.);
#168=EDGE_CURVE('',#125,#139,#86,.T.);
#169=EDGE_CURVE('',#139,#139,#118,.T.);
#170=EDGE_CURVE('',#140,#140,#119,.T.);
#171=EDGE_CURVE('',#140,#141,#87,.T.);
#172=EDGE_CURVE('',#141,#141,#120,.T.);
#173=EDGE_CURVE('',#142,#142,#121,.T.);
#174=EDGE_CURVE('',#143,#143,#122,.T.);
#175=EDGE_CURVE('',#143,#142,#88,.T.);
#176=EDGE_CURVE('',#141,#143,#89,.T.);
#177=ORIENTED_EDGE('',*,*,#144,.T.);
#178=ORIENTED_EDGE('',*,*,#145,.T.);
#179=ORIENTED_EDGE('',*,*,#146,.T.);
#180=ORIENTED_EDGE('',*,*,#147,.T.);
#181=ORIENTED_EDGE('',*,*,#145,.F.);
#182=ORIENTED_EDGE('',*,*,#148,.F.);
#183=ORIENTED_EDGE('',*,*,#149,.T.);
#184=ORIENTED_EDGE('',*,*,#144,.F.);
#185=ORIENTED_EDGE('',*,*,#149,.F.);
#186=ORIENTED_EDGE('',*,*,#150,.T.);
#187=ORIENTED_EDGE('',*,*,#151,.T.);
#188=ORIENTED_EDGE('',*,*,#152,.T.);
#189=ORIENTED_EDGE('',*,*,#153,.T.);
#190=ORIENTED_EDGE('',*,*,#154,.T.);
#191=ORIENTED_EDGE('',*,*,#155,.T.);
#192=ORIENTED_EDGE('',*,*,#148,.T.);
#193=ORIENTED_EDGE('',*,*,#156,.T.);
#194=ORIENTED_EDGE('',*,*,#157,.T.);
#195=ORIENTED_EDGE('',*,*,#150,.F.);
#196=ORIENTED_EDGE('',*,*,#158,.F.);
#197=ORIENTED_EDGE('',*,*,#159,.T.);
#198=ORIENTED_EDGE('',*,*,#158,.T.);
#199=ORIENTED_EDGE('',*,*,#155,.F.);
#200=ORIENTED_EDGE('',*,*,#160,.F.);
#201=ORIENTED_EDGE('',*,*,#161,.T.);
#202=ORIENTED_EDGE('',*,*,#160,.T.);
#203=ORIENTED_EDGE('',*,*,#154,.F.);
#204=ORIENTED_EDGE('',*,*,#162,.F.);
#205=ORIENTED_EDGE('',*,*,#163,.T.);
#206=ORIENTED_EDGE('',*,*,#162,.T.);
#207=ORIENTED_EDGE('',*,*,#153,.F.);
#208=ORIENTED_EDGE('',*,*,#164,.F.);
#209=ORIENTED_EDGE('',*,*,#165,.T.);
#210=ORIENTED_EDGE('',*,*,#164,.T.);
#211=ORIENTED_EDGE('',*,*,#152,.F.);
#212=ORIENTED_EDGE('',*,*,#166,.F.);
#213=ORIENTED_EDGE('',*,*,#167,.T.);
#214=ORIENTED_EDGE('',*,*,#166,.T.);
#215=ORIENTED_EDGE('',*,*,#151,.F.);
#216=ORIENTED_EDGE('',*,*,#157,.F.);
#217=ORIENTED_EDGE('',*,*,#147,.F.);
#218=ORIENTED_EDGE('',*,*,#168,.T.);
#219=ORIENTED_EDGE('',*,*,#169,.T.);
#220=ORIENTED_EDGE('',*,*,#168,.F.);
#221=ORIENTED_EDGE('',*,*,#146,.F.);
#222=ORIENTED_EDGE('',*,*,#169,.F.);
#223=ORIENTED_EDGE('',*,*,#167,.F.);
#224=ORIENTED_EDGE('',*,*,#156,.F.);
#225=ORIENTED_EDGE('',*,*,#159,.F.);
#226=ORIENTED_EDGE('',*,*,#161,.F.);
#227=ORIENTED_EDGE('',*,*,#163,.F.);
#228=ORIENTED_EDGE('',*,*,#165,.F.);
#229=ORIENTED_EDGE('',*,*,#170,.T.);
#230=ORIENTED_EDGE('',*,*,#171,.T.);
#231=ORIENTED_EDGE('',*,*,#172,.T.);
#232=ORIENTED_EDGE('',*,*,#171,.F.);
#233=ORIENTED_EDGE('',*,*,#173,.F.);
#234=ORIENTED_EDGE('',*,*,#174,.F.);
#235=ORIENTED_EDGE('',*,*,#175,.T.);
#236=ORIENTED_EDGE('',*,*,#173,.T.);
#237=ORIENTED_EDGE('',*,*,#175,.F.);
#238=ORIENTED_EDGE('',*,*,#172,.F.);
#239=ORIENTED_EDGE('',*,*,#176,.T.);
#240=ORIENTED_EDGE('',*,*,#174,.T.);
#241=ORIENTED_EDGE('',*,*,#176,.F.);
#242=ORIENTED_EDGE('',*,*,#170,.F.);
#243=CONICAL_SURFACE('',#278,11.,0.321750554396642);
#244=CONICAL_SURFACE('',#302,10.25,0.351444794003552);
#245=ADVANCED_FACE('',(#31),#243,.T.);
#246=ADVANCED_FACE('',(#32),#27,.T.);
#247=ADVANCED_FACE('',(#33),#16,.F.);
#248=ADVANCED_FACE('',(#34),#17,.T.);
#249=ADVANCED_FACE('',(#35),#18,.T.);
#250=ADVANCED_FACE('',(#36),#19,.T.);
#251=ADVANCED_FACE('',(#37),#20,.T.);
#252=ADVANCED_FACE('',(#38),#21,.T.);
#253=ADVANCED_FACE('',(#39),#22,.T.);
#254=ADVANCED_FACE('',(#40),#23,.T.);
#255=ADVANCED_FACE('',(#41),#28,.T.);
#256=ADVANCED_FACE('',(#42,#15),#24,.F.);
#257=ADVANCED_FACE('',(#43),#29,.F.);
#258=ADVANCED_FACE('',(#44),#25,.T.);
#259=ADVANCED_FACE('',(#45),#30,.F.);
#260=ADVANCED_FACE('',(#46),#244,.F.);
#261=ADVANCED_FACE('',(#47),#26,.F.);
#262=CLOSED_SHELL('',(#245,#246,#247,#248,#249,#250,#251,#252,#253,#254,
#255,#256));
#263=CLOSED_SHELL('',(#257,#258,#259,#260,#261));
#264=BREP_WITH_VOIDS('Body124',#262,(#14));
#265=DERIVED_UNIT_ELEMENT(#267,1.);
#266=DERIVED_UNIT_ELEMENT(#459,-3.);
#267=(
MASS_UNIT()
NAMED_UNIT(*)
SI_UNIT(.KILO.,.GRAM.)
);
#268=DERIVED_UNIT((#265,#266));
#269=MEASURE_REPRESENTATION_ITEM('density measure',
POSITIVE_RATIO_MEASURE(7850.),#268);
#270=PROPERTY_DEFINITION_REPRESENTATION(#275,#272);
#271=PROPERTY_DEFINITION_REPRESENTATION(#276,#273);
#272=REPRESENTATION('material name',(#274),#456);
#273=REPRESENTATION('density',(#269),#456);
#274=DESCRIPTIVE_REPRESENTATION_ITEM('Steel','Steel');
#275=PROPERTY_DEFINITION('material property','material name',#466);
#276=PROPERTY_DEFINITION('material property','density of part',#466);
#277=AXIS2_PLACEMENT_3D('',#382,#304,#305);
#278=AXIS2_PLACEMENT_3D('',#383,#306,#307);
#279=AXIS2_PLACEMENT_3D('',#385,#308,#309);
#280=AXIS2_PLACEMENT_3D('',#389,#311,#312);
#281=AXIS2_PLACEMENT_3D('',#390,#313,#314);
#282=AXIS2_PLACEMENT_3D('',#391,#315,#316);
#283=AXIS2_PLACEMENT_3D('',#393,#317,#318);
#284=AXIS2_PLACEMENT_3D('',#395,#320,#321);
#285=AXIS2_PLACEMENT_3D('',#408,#328,#329);
#286=AXIS2_PLACEMENT_3D('',#409,#330,#331);
#287=AXIS2_PLACEMENT_3D('',#415,#335,#336);
#288=AXIS2_PLACEMENT_3D('',#419,#339,#340);
#289=AXIS2_PLACEMENT_3D('',#423,#343,#344);
#290=AXIS2_PLACEMENT_3D('',#427,#347,#348);
#291=AXIS2_PLACEMENT_3D('',#431,#351,#352);
#292=AXIS2_PLACEMENT_3D('',#433,#354,#355);
#293=AXIS2_PLACEMENT_3D('',#436,#357,#358);
#294=AXIS2_PLACEMENT_3D('',#437,#359,#360);
#295=AXIS2_PLACEMENT_3D('',#438,#361,#362);
#296=AXIS2_PLACEMENT_3D('',#440,#363,#364);
#297=AXIS2_PLACEMENT_3D('',#443,#366,#367);
#298=AXIS2_PLACEMENT_3D('',#444,#368,#369);
#299=AXIS2_PLACEMENT_3D('',#446,#370,#371);
#300=AXIS2_PLACEMENT_3D('',#447,#372,#373);
#301=AXIS2_PLACEMENT_3D('',#449,#374,#375);
#302=AXIS2_PLACEMENT_3D('',#451,#377,#378);
#303=AXIS2_PLACEMENT_3D('',#453,#380,#381);
#304=DIRECTION('axis',(0.,0.,1.));
#305=DIRECTION('refdir',(1.,0.,0.));
#306=DIRECTION('center_axis',(0.,0.,1.));
#307=DIRECTION('ref_axis',(-1.,0.,0.));
#308=DIRECTION('center_axis',(0.,0.,-1.));
#309=DIRECTION('ref_axis',(-1.,0.,0.));
#310=DIRECTION('',(-0.316227766016838,-3.87267321454039E-17,-0.948683298050514));
#311=DIRECTION('center_axis',(0.,0.,1.));
#312=DIRECTION('ref_axis',(1.,0.,0.));
#313=DIRECTION('center_axis',(0.,0.,1.));
#314=DIRECTION('ref_axis',(1.,0.,0.));
#315=DIRECTION('center_axis',(0.,0.,1.));
#316=DIRECTION('ref_axis',(-1.,0.,0.));
#317=DIRECTION('center_axis',(0.,0.,1.));
#318=DIRECTION('ref_axis',(-1.,0.,0.));
#319=DIRECTION('',(0.,0.,-1.));
#320=DIRECTION('center_axis',(0.,0.,1.));
#321=DIRECTION('ref_axis',(-1.,0.,0.));
#322=DIRECTION('',(0.5,0.866025403784439,0.));
#323=DIRECTION('',(1.,0.,0.));
#324=DIRECTION('',(0.500000000000001,-0.866025403784438,0.));
#325=DIRECTION('',(-0.499999999999999,-0.866025403784439,0.));
#326=DIRECTION('',(-1.,0.,0.));
#327=DIRECTION('',(-0.5,0.866025403784439,0.));
#328=DIRECTION('center_axis',(0.,0.,1.));
#329=DIRECTION('ref_axis',(-1.,0.,0.));
#330=DIRECTION('center_axis',(0.866025403784439,-0.5,0.));
#331=DIRECTION('ref_axis',(0.5,0.866025403784439,0.));
#332=DIRECTION('',(0.5,0.866025403784439,0.));
#333=DIRECTION('',(0.,0.,1.));
#334=DIRECTION('',(0.,0.,1.));
#335=DIRECTION('center_axis',(0.866025403784439,0.5,0.));
#336=DIRECTION('ref_axis',(-0.5,0.866025403784439,0.));
#337=DIRECTION('',(-0.5,0.866025403784439,0.));
#338=DIRECTION('',(0.,0.,1.));
#339=DIRECTION('center_axis',(0.,1.,0.));
#340=DIRECTION('ref_axis',(-1.,0.,0.));
#341=DIRECTION('',(-1.,0.,0.));
#342=DIRECTION('',(0.,0.,1.));
#343=DIRECTION('center_axis',(-0.866025403784439,0.499999999999999,0.));
#344=DIRECTION('ref_axis',(-0.499999999999999,-0.866025403784439,0.));
#345=DIRECTION('',(-0.499999999999999,-0.866025403784439,0.));
#346=DIRECTION('',(0.,0.,1.));
#347=DIRECTION('center_axis',(-0.866025403784438,-0.500000000000001,0.));
#348=DIRECTION('ref_axis',(0.500000000000001,-0.866025403784438,0.));
#349=DIRECTION('',(0.500000000000001,-0.866025403784438,0.));
#350=DIRECTION('',(0.,0.,1.));
#351=DIRECTION('center_axis',(0.,-1.,0.));
#352=DIRECTION('ref_axis',(1.,0.,0.));
#353=DIRECTION('',(1.,0.,0.));
#354=DIRECTION('center_axis',(0.,0.,1.));
#355=DIRECTION('ref_axis',(1.,0.,0.));
#356=DIRECTION('',(0.,0.,-1.));
#357=DIRECTION('center_axis',(0.,0.,1.));
#358=DIRECTION('ref_axis',(1.,0.,0.));
#359=DIRECTION('center_axis',(0.,0.,1.));
#360=DIRECTION('ref_axis',(1.,0.,0.));
#361=DIRECTION('center_axis',(0.,0.,-1.));
#362=DIRECTION('ref_axis',(-1.,0.,0.));
#363=DIRECTION('center_axis',(0.,0.,1.));
#364=DIRECTION('ref_axis',(-1.,0.,0.));
#365=DIRECTION('',(0.,0.,-1.));
#366=DIRECTION('center_axis',(0.,0.,-1.));
#367=DIRECTION('ref_axis',(-1.,0.,0.));
#368=DIRECTION('center_axis',(0.,0.,1.));
#369=DIRECTION('ref_axis',(-1.,0.,0.));
#370=DIRECTION('center_axis',(0.,0.,-1.));
#371=DIRECTION('ref_axis',(-1.,0.,0.));
#372=DIRECTION('center_axis',(0.,0.,-1.));
#373=DIRECTION('ref_axis',(-1.,0.,0.));
#374=DIRECTION('center_axis',(0.,0.,-1.));
#375=DIRECTION('ref_axis',(-1.,0.,0.));
#376=DIRECTION('',(0.,0.,-1.));
#377=DIRECTION('center_axis',(0.,0.,1.));
#378=DIRECTION('ref_axis',(-1.,0.,0.));
#379=DIRECTION('',(-0.344254649158423,-4.21590354183458E-17,-0.938876315886609));
#380=DIRECTION('center_axis',(0.,0.,1.));
#381=DIRECTION('ref_axis',(-1.,0.,0.));
#382=CARTESIAN_POINT('',(0.,0.,0.));
#383=CARTESIAN_POINT('Origin',(-25.,-150.,42.));
#384=CARTESIAN_POINT('',(-10.,-150.,54.));
#385=CARTESIAN_POINT('Origin',(-25.,-150.,54.));
#386=CARTESIAN_POINT('',(-18.0000002130866,-150.,29.9999993607402));
#387=CARTESIAN_POINT('',(-14.,-150.,42.));
#388=CARTESIAN_POINT('',(-31.999997869134,-150.,30.));
#389=CARTESIAN_POINT('Origin',(-25.,-150.,30.));
#390=CARTESIAN_POINT('Origin',(-25.,-150.,30.));
#391=CARTESIAN_POINT('Origin',(-25.,-150.,30.));
#392=CARTESIAN_POINT('',(-10.,-150.,90.));
#393=CARTESIAN_POINT('Origin',(-25.,-150.,90.));
#394=CARTESIAN_POINT('',(-10.,-150.,30.));
#395=CARTESIAN_POINT('Origin',(-25.,-150.,30.));
#396=CARTESIAN_POINT('',(-30.7735026918963,-150.,30.));
#397=CARTESIAN_POINT('',(-27.8867513459481,-145.,30.));
#398=CARTESIAN_POINT('',(-27.8867513459481,-145.,30.));
#399=CARTESIAN_POINT('',(-22.1132486540519,-145.,30.));
#400=CARTESIAN_POINT('',(-22.1132486540519,-145.,30.));
#401=CARTESIAN_POINT('',(-19.2264973081037,-150.,30.));
#402=CARTESIAN_POINT('',(-19.2264973081037,-150.,30.));
#403=CARTESIAN_POINT('',(-22.1132486540519,-155.,30.));
#404=CARTESIAN_POINT('',(-22.1132486540519,-155.,30.));
#405=CARTESIAN_POINT('',(-27.8867513459481,-155.,30.));
#406=CARTESIAN_POINT('',(-27.8867513459481,-155.,30.));
#407=CARTESIAN_POINT('',(-30.7735026918963,-150.,30.));
#408=CARTESIAN_POINT('Origin',(-25.,-150.,90.));
#409=CARTESIAN_POINT('Origin',(-30.7735026918963,-150.,0.));
#410=CARTESIAN_POINT('',(-30.7735026918963,-150.,0.));
#411=CARTESIAN_POINT('',(-27.8867513459481,-145.,0.));
#412=CARTESIAN_POINT('',(-27.8867513459481,-145.,0.));
#413=CARTESIAN_POINT('',(-27.8867513459481,-145.,0.));
#414=CARTESIAN_POINT('',(-30.7735026918963,-150.,0.));
#415=CARTESIAN_POINT('Origin',(-27.8867513459481,-155.,0.));
#416=CARTESIAN_POINT('',(-27.8867513459481,-155.,0.));
#417=CARTESIAN_POINT('',(-30.7735026918963,-150.,0.));
#418=CARTESIAN_POINT('',(-27.8867513459481,-155.,0.));
#419=CARTESIAN_POINT('Origin',(-22.1132486540519,-155.,0.));
#420=CARTESIAN_POINT('',(-22.1132486540519,-155.,0.));
#421=CARTESIAN_POINT('',(-27.8867513459481,-155.,0.));
#422=CARTESIAN_POINT('',(-22.1132486540519,-155.,0.));
#423=CARTESIAN_POINT('Origin',(-19.2264973081037,-150.,0.));
#424=CARTESIAN_POINT('',(-19.2264973081037,-150.,0.));
#425=CARTESIAN_POINT('',(-22.1132486540519,-155.,0.));
#426=CARTESIAN_POINT('',(-19.2264973081037,-150.,0.));
#427=CARTESIAN_POINT('Origin',(-22.1132486540519,-145.,0.));
#428=CARTESIAN_POINT('',(-22.1132486540519,-145.,0.));
#429=CARTESIAN_POINT('',(-19.2264973081037,-150.,0.));
#430=CARTESIAN_POINT('',(-22.1132486540519,-145.,0.));
#431=CARTESIAN_POINT('Origin',(-27.8867513459481,-145.,0.));
#432=CARTESIAN_POINT('',(-22.1132486540519,-145.,0.));
#433=CARTESIAN_POINT('Origin',(-25.,-150.,0.));
#434=CARTESIAN_POINT('',(-31.999997869134,-150.,0.));
#435=CARTESIAN_POINT('',(-31.999997869134,-150.,0.));
#436=CARTESIAN_POINT('Origin',(-25.,-150.,0.));
#437=CARTESIAN_POINT('Origin',(-25.,-150.,0.));
#438=CARTESIAN_POINT('Origin',(-25.,-150.,90.));
#439=CARTESIAN_POINT('',(-12.,-150.,88.));
#440=CARTESIAN_POINT('Origin',(-25.,-150.,88.));
#441=CARTESIAN_POINT('',(-12.,-150.,53.));
#442=CARTESIAN_POINT('',(-12.,-150.,90.));
#443=CARTESIAN_POINT('Origin',(-25.,-150.,53.));
#444=CARTESIAN_POINT('Origin',(-25.,-150.,37.));
#445=CARTESIAN_POINT('',(-17.5,-150.,37.));
#446=CARTESIAN_POINT('Origin',(-25.,-150.,37.));
#447=CARTESIAN_POINT('Origin',(-25.,-150.,53.));
#448=CARTESIAN_POINT('',(-17.5,-150.,38.));
#449=CARTESIAN_POINT('Origin',(-25.,-150.,38.));
#450=CARTESIAN_POINT('',(-17.5,-150.,53.));
#451=CARTESIAN_POINT('Origin',(-25.,-150.,45.5));
#452=CARTESIAN_POINT('',(-14.75,-150.,45.5));
#453=CARTESIAN_POINT('Origin',(-25.,-150.,88.));
#454=UNCERTAINTY_MEASURE_WITH_UNIT(LENGTH_MEASURE(0.01),#458,
'DISTANCE_ACCURACY_VALUE',
'Maximum model space distance between geometric entities at asserted c
onnectivities');
#455=UNCERTAINTY_MEASURE_WITH_UNIT(LENGTH_MEASURE(0.01),#458,
'DISTANCE_ACCURACY_VALUE',
'Maximum model space distance between geometric entities at asserted c
onnectivities');
#456=(
GEOMETRIC_REPRESENTATION_CONTEXT(3)
GLOBAL_UNCERTAINTY_ASSIGNED_CONTEXT((#454))
GLOBAL_UNIT_ASSIGNED_CONTEXT((#458,#460,#461))
REPRESENTATION_CONTEXT('','3D')
);
#457=(
GEOMETRIC_REPRESENTATION_CONTEXT(3)
GLOBAL_UNCERTAINTY_ASSIGNED_CONTEXT((#455))
GLOBAL_UNIT_ASSIGNED_CONTEXT((#458,#460,#461))
REPRESENTATION_CONTEXT('','3D')
);
#458=(
LENGTH_UNIT()
NAMED_UNIT(*)
SI_UNIT(.MILLI.,.METRE.)
);
#459=(
LENGTH_UNIT()
NAMED_UNIT(*)
SI_UNIT($,.METRE.)
);
#460=(
NAMED_UNIT(*)
PLANE_ANGLE_UNIT()
SI_UNIT($,.RADIAN.)
);
#461=(
NAMED_UNIT(*)
SI_UNIT($,.STERADIAN.)
SOLID_ANGLE_UNIT()
);
#462=SHAPE_DEFINITION_REPRESENTATION(#463,#464);
#463=PRODUCT_DEFINITION_SHAPE('',$,#466);
#464=SHAPE_REPRESENTATION('',(#277),#456);
#465=PRODUCT_DEFINITION_CONTEXT('part definition',#470,'design');
#466=PRODUCT_DEFINITION('Subsonic Mk3 Passive',
'Subsonic Mk3 Passive v7',#467,#465);
#467=PRODUCT_DEFINITION_FORMATION('',$,#472);
#468=PRODUCT_RELATED_PRODUCT_CATEGORY('Subsonic Mk3 Passive v7',
'Subsonic Mk3 Passive v7',(#472));
#469=APPLICATION_PROTOCOL_DEFINITION('international standard',
'automotive_design',2009,#470);
#470=APPLICATION_CONTEXT(
'Core Data for Automotive Mechanical Design Process');
#471=PRODUCT_CONTEXT('part definition',#470,'mechanical');
#472=PRODUCT('Subsonic Mk3 Passive','Subsonic Mk3 Passive v7',$,(#471));
#473=PRESENTATION_STYLE_ASSIGNMENT((#474));
#474=SURFACE_STYLE_USAGE(.BOTH.,#475);
#475=SURFACE_SIDE_STYLE('',(#476));
#476=SURFACE_STYLE_FILL_AREA(#477);
#477=FILL_AREA_STYLE('Steel - Satin',(#478));
#478=FILL_AREA_STYLE_COLOUR('Steel - Satin',#479);
#479=COLOUR_RGB('Steel - Satin',0.627450980392157,0.627450980392157,0.627450980392157);
ENDSEC;
END-ISO-10303-21;
